#!OML:ASF F:\VICON\USERDATA\INSTALL\rory3\rory3.ASF
:FULLY-SPECIFIED
:DEGREES
75
root 4.6021902439670495 17.89848012215269 36.3807834955938 -3.9849042150309186 -1.5184693358075472 -4.983692168204511
lfemur -19.772725248866845 4.037050841252375 -13.540160508916864
ltibia 71.2203409587027
lfoot 2.869610475260031 -8.402745672505311
ltoes -1.2411413316657818
rfemur -5.791067122147586 6.501650461511812 31.84651144191186
rtibia 33.197149418776824
rfoot -9.988984427998787 -5.400525246422942
rtoes 8.798759068875892
lowerback 1.0 0.7440957965518724 4.535048178316674
upperback 0.761429257408384 0.9907837538536214 2.230821749835823
thorax -4.6674436698072235 0.4193617710514872 0.2053101927450931
lowerneck -16.991288407873483 -2.5155756228669137 -1.646391374916952
upperneck 16.60032343796962 -2.9595618588275983 1.131099299837842
head 8.541265582865954 -1.329928951373812 0.09486901636707686
lclavicle 3.3125133996959194e-16 -5.706001004271384e-15
lhumerus -30.80006011372615 -0.3502289198669626 83.72868653499779
lradius 33.08090203214851
lwrist 6.230404045810321
lhand -26.487340846976995 23.97707547334156
lfingers nan
lthumb 0.11007980238730697 54.16997736566099
rclavicle 4.322141532519613e-15 -2.627662787860246e-15
rhumerus -28.48644881324118 -20.167981721887873 -78.79931032329276
rradius 23.08151998935786
rwrist 3.5897811755695144
rhand -17.600120749794037 1.0
rfingers nan
rthumb 8.946320295658387 -7.318371994439136
76
root 4.578619286173697 17.870558361082626 34.58910663604037 -3.840864444764357 -2.3814511751193908 -5.926700909364429
lfemur -24.257326368050144 4.936699368240932 -13.389988910531429
ltibia 69.55395026264429
lfoot 1.0368831349629835 -5.521944871651382
ltoes -3.291764256159639
rfemur -3.04346376346726 6.243786615902396 32.923176884195165
rtibia 33.37790010821158
rfoot -11.700570351326878 -5.26707130439565
rtoes 8.38858749446782
lowerback 1.0 0.987093844850628 5.143364765136022
upperback 0.6515206487970807 1.4345771833430097 2.1859167666133255
thorax -4.701777170265316 0.6461092609710755 -0.1355492099678739
lowerneck -16.654954159057393 -2.577407305795464 -1.5999772260873275
upperneck 16.764765098495232 -3.009113915226461 0.9753122879118361
head 8.681283656055012 -1.3687375517305438 0.036369157705890026
lclavicle 2.034007424213321e-15 -2.616327550994832e-15
lhumerus -31.65057077561691 0.6200335326413406 83.71150650924793
lradius 33.48085555587032
lwrist 6.036245153750776
lhand -26.103021900422725 24.72711598958019
lfingers nan
lthumb 0.27616806926235493 54.37099463437176
rclavicle 1.4808432192052057e-15 -2.6867540441794038e-15
rhumerus -27.564149968749362 -17.67804952092802 -79.77465325402167
rradius 24.101949841722234
rwrist 2.7567539925584414
rhand -17.540137800871033 1.0
rfingers nan
rthumb 8.823804800709127 -7.851677576624571
77
root 4.613231710290088 17.85395568261513 36.76917640208626 -3.262208174476805 -2.799145756578245 -6.059967452863034
lfemur -27.798351209479556 5.060598662235522 -12.939288933308436
ltibia 65.23036843802275
lfoot -0.5797340864213893 -3.2368957011896127
ltoes -3.227261289922957
rfemur -0.7487690533667628 6.085773254805333 33.930072504849576
rtibia 33.15358524409868
rfoot -13.222287203881695 -5.059606962383589
rtoes 10.493017953850625
lowerback 1.0 1.3033326203404214 6.030644242398277
upperback 0.7046321101470768 2.0587669645031506 2.2596182137445693
thorax -4.66032906129035 0.8764912323309443 -0.6401698400382494
lowerneck -16.858692013965232 -2.6285547477535207 -1.5927064876019768
upperneck 16.51453346151674 -2.9824861109806533 1.2849854313376416
head 8.669717706313548 -1.3159648719229713 0.1760231923081254
lclavicle 2.8458008046953972e-15 -4.594128730826173e-15
lhumerus -32.547350777570735 1.8864508854747608 83.36053781376562
lradius 33.423331653912534
lwrist 5.732083679438149
lhand -25.649099702213462 26.213232204282534
lfingers nan
lthumb 0.6241234604813362 55.35898787636157
rclavicle 5.615879470687174e-15 -1.6131761432653286e-15
rhumerus -26.727939871056027 -15.514230667296836 -80.6212610196474
rradius 25.74330033842782
rwrist 1.0593353742690006
rhand -17.34729099169463 1.0
rfingers nan
rthumb 8.81371170160859 -6.438349057433279
78
root 4.603757726103142 17.807298093802686 35.52779400618494 -2.83647785588266 -3.6600674909985047 -6.87616243428004
lfemur -29.859448048454432 4.696781651240492 -13.044203534210558
ltibia 58.60985056615024
lfoot 1.070705011301789 -0.2392250518076593
ltoes -2.074449174074381
rfemur 0.6125051814642894 6.022626139145806 34.06340026399733
rtibia 32.09197132446034
rfoot -14.416640511610716 -5.054571839146237
rtoes 12.171524476927015
lowerback 1.0 1.5456448976073138 6.14492402458887
upperback 0.6641688189543409 2.367809387430829 2.179119295715113
thorax -4.566388028404296 1.0652220313138816 -0.78555052861082
lowerneck -17.26146322405731 -2.6865161645675375 -1.5291152517294178
upperneck 15.892025296385809 -2.955775973571873 1.0124783413212681
head 8.713757811376716 -1.340046495027826 -0.05188737363941355
lclavicle 1.4076153139890884e-15 -2.2569358445413128e-15
lhumerus -33.26351974963724 3.232603187631497 83.1139131885921
lradius 32.96472129494406
lwrist 5.252619507185499
lhand -25.8865651145684 24.127652151778083
lfingers nan
lthumb 0.8694008218000782 54.881296330696394
rclavicle -4.068577238233165e-15 -7.794242036241414e-15
rhumerus -26.069947057082793 -13.718798674393874 -81.09656153845881
rradius 27.160292711225445
rwrist 0.73478073246631
rhand -17.370722186756577 1.0
rfingers nan
rthumb 8.970714484659318 -4.8201699692067645
